<svg xmlns="http://www.w3.org/2000/svg" version="1.1" viewBox="0.00 0.00 123.00 104.00" width="123.00" height="104.00">
<g stroke-width="2.00" fill="none" stroke-linecap="butt">
<path stroke="#919191" d="&#10;  M 110.09 50.50&#10;  A 46.55 46.55 0.0 0 0 63.54 3.95&#10;  A 46.55 46.55 0.0 0 0 16.99 50.50&#10;  A 46.55 46.55 0.0 0 0 63.54 97.05&#10;  A 46.55 46.55 0.0 0 0 110.09 50.50"/>
<path stroke="#919191" d="&#10;  M 105.00 50.49&#10;  A 41.28 41.28 0.0 0 0 63.72 9.21&#10;  A 41.28 41.28 0.0 0 0 22.44 50.49&#10;  A 41.28 41.28 0.0 0 0 63.72 91.77&#10;  A 41.28 41.28 0.0 0 0 105.00 50.49"/>
<path stroke="#919191" d="&#10;  M 73.78 31.47&#10;  Q 76.78 31.47 77.04 31.51&#10;  Q 77.53 31.59 77.55 32.00&#10;  L 77.67 35.95&#10;  Q 77.74 38.28 80.57 38.55&#10;  Q 80.63 38.56 80.91 38.50&#10;  Q 83.17 38.04 83.22 35.61&#10;  L 83.30 31.98&#10;  Q 83.30 31.50 83.78 31.49&#10;  L 90.45 31.40&#10;  Q 92.48 31.37 92.99 28.90&#10;  Q 93.00 28.85 92.99 28.79&#10;  Q 92.61 26.10 90.24 26.06&#10;  L 83.74 25.97&#10;  Q 83.26 25.96 83.26 25.48&#10;  L 83.26 22.15&#10;  A 2.51 2.51 0.0 0 0 80.75 19.64&#10;  L 80.11 19.64&#10;  Q 77.61 19.64 77.61 22.15&#10;  L 77.61 25.40&#10;  Q 77.61 25.93 77.07 25.96&#10;  Q 76.06 26.00 73.78 26.00&#10;  Q 71.50 26.00 70.48 25.96&#10;  Q 69.94 25.93 69.94 25.40&#10;  L 69.94 22.15&#10;  Q 69.94 19.64 67.44 19.64&#10;  L 66.80 19.64&#10;  A 2.51 2.51 0.0 0 0 64.29 22.15&#10;  L 64.29 25.48&#10;  Q 64.29 25.96 63.81 25.97&#10;  L 57.31 26.06&#10;  Q 54.94 26.10 54.56 28.79&#10;  Q 54.55 28.85 54.56 28.90&#10;  Q 55.07 31.37 57.10 31.40&#10;  L 63.77 31.49&#10;  Q 64.25 31.50 64.25 31.98&#10;  L 64.33 35.61&#10;  Q 64.38 38.04 66.64 38.50&#10;  Q 66.92 38.56 66.98 38.55&#10;  Q 69.81 38.28 69.88 35.95&#10;  L 70.00 32.00&#10;  Q 70.02 31.59 70.52 31.51&#10;  Q 70.78 31.47 73.78 31.47"/>
<path stroke="#919191" d="&#10;  M 44.18 58.14&#10;  Q 43.80 66.85 40.79 76.71&#10;  Q 40.10 78.97 42.94 80.13&#10;  Q 42.99 80.14 43.05 80.14&#10;  Q 45.41 80.16 46.16 77.86&#10;  Q 53.51 55.33 46.91 33.33&#10;  Q 46.75 32.82 47.13 32.44&#10;  L 54.25 25.25&#10;  Q 55.78 23.71 54.57 21.91&#10;  L 54.50 21.81&#10;  Q 52.26 19.34 50.17 21.42&#10;  L 45.16 26.43&#10;  Q 44.73 26.86 44.50 26.35&#10;  L 42.26 21.37&#10;  A 2.75 2.47 62.4 0 0 38.56 19.99&#10;  Q 38.48 20.04 38.47 20.04&#10;  Q 36.01 21.10 37.04 23.47&#10;  L 40.27 30.95&#10;  Q 40.48 31.43 40.11 31.80&#10;  L 34.38 37.53&#10;  Q 32.53 39.38 34.38 41.24&#10;  L 34.92 41.78&#10;  A 2.23 2.23 0.0 0 0 38.07 41.78&#10;  L 41.96 37.89&#10;  A 0.33 0.33 0.0 0 1 42.52 38.07&#10;  L 44.27 49.28&#10;  Q 44.35 49.81 43.95 50.16&#10;  L 34.22 58.69&#10;  Q 32.22 60.44 33.93 62.58&#10;  Q 33.96 62.62 34.12 62.77&#10;  Q 35.92 64.57 37.90 62.85&#10;  L 43.63 57.87&#10;  Q 44.21 57.36 44.18 58.14"/>
<path stroke="#919191" d="&#10;  M 89.64 42.44&#10;  A 2.86 2.86 0.0 0 0 86.78 39.58&#10;  L 60.80 39.58&#10;  A 2.86 2.86 0.0 0 0 57.94 42.44&#10;  L 57.94 76.46&#10;  A 2.86 2.86 0.0 0 0 60.80 79.32&#10;  L 86.78 79.32&#10;  A 2.86 2.86 0.0 0 0 89.64 76.46&#10;  L 89.64 42.44"/>
<path stroke="#919191" d="&#10;  M 70.9122 45.4136&#10;  A 0.37 0.37 0.0 0 0 70.5415 45.0443&#10;  L 63.9816 45.0557&#10;  A 0.37 0.37 0.0 0 0 63.6122 45.4264&#10;  L 63.6278 54.3664&#10;  A 0.37 0.37 0.0 0 0 63.9985 54.7357&#10;  L 70.5584 54.7243&#10;  A 0.37 0.37 0.0 0 0 70.9278 54.3536&#10;  L 70.9122 45.4136"/>
<path stroke="#919191" d="&#10;  M 83.97 45.43&#10;  A 0.38 0.38 0.0 0 0 83.59 45.05&#10;  L 76.95 45.05&#10;  A 0.38 0.38 0.0 0 0 76.57 45.43&#10;  L 76.57 54.35&#10;  A 0.38 0.38 0.0 0 0 76.95 54.73&#10;  L 83.59 54.73&#10;  A 0.38 0.38 0.0 0 0 83.97 54.35&#10;  L 83.97 45.43"/>
<path stroke="#919191" d="&#10;  M 70.92 60.43&#10;  A 0.43 0.43 0.0 0 0 70.49 60.00&#10;  L 64.05 60.00&#10;  A 0.43 0.43 0.0 0 0 63.62 60.43&#10;  L 63.62 73.41&#10;  A 0.43 0.43 0.0 0 0 64.05 73.84&#10;  L 70.49 73.84&#10;  A 0.43 0.43 0.0 0 0 70.92 73.41&#10;  L 70.92 60.43"/>
<path stroke="#919191" d="&#10;  M 83.9487 60.4236&#10;  A 0.43 0.43 0.0 0 0 83.5179 59.9943&#10;  L 76.9979 60.0057&#10;  A 0.43 0.43 0.0 0 0 76.5687 60.4365&#10;  L 76.5913 73.4164&#10;  A 0.43 0.43 0.0 0 0 77.0221 73.8457&#10;  L 83.5421 73.8343&#10;  A 0.43 0.43 0.0 0 0 83.9713 73.4035&#10;  L 83.9487 60.4236"/>
</g>
<path fill="#ffffff" d="&#10;  M 123.00 0.00&#10;  L 123.00 104.00&#10;  L 0.00 104.00&#10;  L 0.00 0.00&#10;  L 123.00 0.00&#10;  Z&#10;  M 110.09 50.50&#10;  A 46.55 46.55 0.0 0 0 63.54 3.95&#10;  A 46.55 46.55 0.0 0 0 16.99 50.50&#10;  A 46.55 46.55 0.0 0 0 63.54 97.05&#10;  A 46.55 46.55 0.0 0 0 110.09 50.50&#10;  Z"/>
<path fill="#222222" d="&#10;  M 110.09 50.50&#10;  A 46.55 46.55 0.0 0 1 63.54 97.05&#10;  A 46.55 46.55 0.0 0 1 16.99 50.50&#10;  A 46.55 46.55 0.0 0 1 63.54 3.95&#10;  A 46.55 46.55 0.0 0 1 110.09 50.50&#10;  Z&#10;  M 105.00 50.49&#10;  A 41.28 41.28 0.0 0 0 63.72 9.21&#10;  A 41.28 41.28 0.0 0 0 22.44 50.49&#10;  A 41.28 41.28 0.0 0 0 63.72 91.77&#10;  A 41.28 41.28 0.0 0 0 105.00 50.49&#10;  Z"/>
<path fill="#ffffff" d="&#10;  M 105.00 50.49&#10;  A 41.28 41.28 0.0 0 1 63.72 91.77&#10;  A 41.28 41.28 0.0 0 1 22.44 50.49&#10;  A 41.28 41.28 0.0 0 1 63.72 9.21&#10;  A 41.28 41.28 0.0 0 1 105.00 50.49&#10;  Z&#10;  M 73.78 31.47&#10;  Q 76.78 31.47 77.04 31.51&#10;  Q 77.53 31.59 77.55 32.00&#10;  L 77.67 35.95&#10;  Q 77.74 38.28 80.57 38.55&#10;  Q 80.63 38.56 80.91 38.50&#10;  Q 83.17 38.04 83.22 35.61&#10;  L 83.30 31.98&#10;  Q 83.30 31.50 83.78 31.49&#10;  L 90.45 31.40&#10;  Q 92.48 31.37 92.99 28.90&#10;  Q 93.00 28.85 92.99 28.79&#10;  Q 92.61 26.10 90.24 26.06&#10;  L 83.74 25.97&#10;  Q 83.26 25.96 83.26 25.48&#10;  L 83.26 22.15&#10;  A 2.51 2.51 0.0 0 0 80.75 19.64&#10;  L 80.11 19.64&#10;  Q 77.61 19.64 77.61 22.15&#10;  L 77.61 25.40&#10;  Q 77.61 25.93 77.07 25.96&#10;  Q 76.06 26.00 73.78 26.00&#10;  Q 71.50 26.00 70.48 25.96&#10;  Q 69.94 25.93 69.94 25.40&#10;  L 69.94 22.15&#10;  Q 69.94 19.64 67.44 19.64&#10;  L 66.80 19.64&#10;  A 2.51 2.51 0.0 0 0 64.29 22.15&#10;  L 64.29 25.48&#10;  Q 64.29 25.96 63.81 25.97&#10;  L 57.31 26.06&#10;  Q 54.94 26.10 54.56 28.79&#10;  Q 54.55 28.85 54.56 28.90&#10;  Q 55.07 31.37 57.10 31.40&#10;  L 63.77 31.49&#10;  Q 64.25 31.50 64.25 31.98&#10;  L 64.33 35.61&#10;  Q 64.38 38.04 66.64 38.50&#10;  Q 66.92 38.56 66.98 38.55&#10;  Q 69.81 38.28 69.88 35.95&#10;  L 70.00 32.00&#10;  Q 70.02 31.59 70.52 31.51&#10;  Q 70.78 31.47 73.78 31.47&#10;  Z&#10;  M 44.18 58.14&#10;  Q 43.80 66.85 40.79 76.71&#10;  Q 40.10 78.97 42.94 80.13&#10;  Q 42.99 80.14 43.05 80.14&#10;  Q 45.41 80.16 46.16 77.86&#10;  Q 53.51 55.33 46.91 33.33&#10;  Q 46.75 32.82 47.13 32.44&#10;  L 54.25 25.25&#10;  Q 55.78 23.71 54.57 21.91&#10;  L 54.50 21.81&#10;  Q 52.26 19.34 50.17 21.42&#10;  L 45.16 26.43&#10;  Q 44.73 26.86 44.50 26.35&#10;  L 42.26 21.37&#10;  A 2.75 2.47 62.4 0 0 38.56 19.99&#10;  Q 38.48 20.04 38.47 20.04&#10;  Q 36.01 21.10 37.04 23.47&#10;  L 40.27 30.95&#10;  Q 40.48 31.43 40.11 31.80&#10;  L 34.38 37.53&#10;  Q 32.53 39.38 34.38 41.24&#10;  L 34.92 41.78&#10;  A 2.23 2.23 0.0 0 0 38.07 41.78&#10;  L 41.96 37.89&#10;  A 0.33 0.33 0.0 0 1 42.52 38.07&#10;  L 44.27 49.28&#10;  Q 44.35 49.81 43.95 50.16&#10;  L 34.22 58.69&#10;  Q 32.22 60.44 33.93 62.58&#10;  Q 33.96 62.62 34.12 62.77&#10;  Q 35.92 64.57 37.90 62.85&#10;  L 43.63 57.87&#10;  Q 44.21 57.36 44.18 58.14&#10;  Z&#10;  M 89.64 42.44&#10;  A 2.86 2.86 0.0 0 0 86.78 39.58&#10;  L 60.80 39.58&#10;  A 2.86 2.86 0.0 0 0 57.94 42.44&#10;  L 57.94 76.46&#10;  A 2.86 2.86 0.0 0 0 60.80 79.32&#10;  L 86.78 79.32&#10;  A 2.86 2.86 0.0 0 0 89.64 76.46&#10;  L 89.64 42.44&#10;  Z"/>
<path fill="#222222" d="&#10;  M 73.78 26.00&#10;  Q 76.06 26.00 77.07 25.96&#10;  Q 77.61 25.93 77.61 25.40&#10;  L 77.61 22.15&#10;  Q 77.61 19.64 80.11 19.64&#10;  L 80.75 19.64&#10;  A 2.51 2.51 0.0 0 1 83.26 22.15&#10;  L 83.26 25.48&#10;  Q 83.26 25.96 83.74 25.97&#10;  L 90.24 26.06&#10;  Q 92.61 26.10 92.99 28.79&#10;  Q 93.00 28.85 92.99 28.90&#10;  Q 92.48 31.37 90.45 31.40&#10;  L 83.78 31.49&#10;  Q 83.30 31.50 83.30 31.98&#10;  L 83.22 35.61&#10;  Q 83.17 38.04 80.91 38.50&#10;  Q 80.63 38.56 80.57 38.55&#10;  Q 77.74 38.28 77.67 35.95&#10;  L 77.55 32.00&#10;  Q 77.53 31.59 77.04 31.51&#10;  Q 76.78 31.47 73.78 31.47&#10;  Q 70.78 31.47 70.52 31.51&#10;  Q 70.02 31.59 70.00 32.00&#10;  L 69.88 35.95&#10;  Q 69.81 38.28 66.98 38.55&#10;  Q 66.92 38.56 66.64 38.50&#10;  Q 64.38 38.04 64.33 35.61&#10;  L 64.25 31.98&#10;  Q 64.25 31.50 63.77 31.49&#10;  L 57.10 31.40&#10;  Q 55.07 31.37 54.56 28.90&#10;  Q 54.55 28.85 54.56 28.79&#10;  Q 54.94 26.10 57.31 26.06&#10;  L 63.81 25.97&#10;  Q 64.29 25.96 64.29 25.48&#10;  L 64.29 22.15&#10;  A 2.51 2.51 0.0 0 1 66.80 19.64&#10;  L 67.44 19.64&#10;  Q 69.94 19.64 69.94 22.15&#10;  L 69.94 25.40&#10;  Q 69.94 25.93 70.48 25.96&#10;  Q 71.50 26.00 73.78 26.00&#10;  Z"/>
<path fill="#222222" d="&#10;  M 43.63 57.87&#10;  L 37.90 62.85&#10;  Q 35.92 64.57 34.12 62.77&#10;  Q 33.96 62.62 33.93 62.58&#10;  Q 32.22 60.44 34.22 58.69&#10;  L 43.95 50.16&#10;  Q 44.35 49.81 44.27 49.28&#10;  L 42.52 38.07&#10;  A 0.33 0.33 0.0 0 0 41.96 37.89&#10;  L 38.07 41.78&#10;  A 2.23 2.23 0.0 0 1 34.92 41.78&#10;  L 34.38 41.24&#10;  Q 32.53 39.38 34.38 37.53&#10;  L 40.11 31.80&#10;  Q 40.48 31.43 40.27 30.95&#10;  L 37.04 23.47&#10;  Q 36.01 21.10 38.47 20.04&#10;  Q 38.48 20.04 38.56 19.99&#10;  A 2.75 2.47 62.4 0 1 42.26 21.37&#10;  L 44.50 26.35&#10;  Q 44.73 26.86 45.16 26.43&#10;  L 50.17 21.42&#10;  Q 52.26 19.34 54.50 21.81&#10;  L 54.57 21.91&#10;  Q 55.78 23.71 54.25 25.25&#10;  L 47.13 32.44&#10;  Q 46.75 32.82 46.91 33.33&#10;  Q 53.51 55.33 46.16 77.86&#10;  Q 45.41 80.16 43.05 80.14&#10;  Q 42.99 80.14 42.94 80.13&#10;  Q 40.10 78.97 40.79 76.71&#10;  Q 43.80 66.85 44.18 58.14&#10;  Q 44.21 57.36 43.63 57.87&#10;  Z"/>
<path fill="#222222" d="&#10;  M 89.64 76.46&#10;  A 2.86 2.86 0.0 0 1 86.78 79.32&#10;  L 60.80 79.32&#10;  A 2.86 2.86 0.0 0 1 57.94 76.46&#10;  L 57.94 42.44&#10;  A 2.86 2.86 0.0 0 1 60.80 39.58&#10;  L 86.78 39.58&#10;  A 2.86 2.86 0.0 0 1 89.64 42.44&#10;  L 89.64 76.46&#10;  Z&#10;  M 70.9122 45.4136&#10;  A 0.37 0.37 0.0 0 0 70.5415 45.0443&#10;  L 63.9816 45.0557&#10;  A 0.37 0.37 0.0 0 0 63.6122 45.4264&#10;  L 63.6278 54.3664&#10;  A 0.37 0.37 0.0 0 0 63.9985 54.7357&#10;  L 70.5584 54.7243&#10;  A 0.37 0.37 0.0 0 0 70.9278 54.3536&#10;  L 70.9122 45.4136&#10;  Z&#10;  M 83.97 45.43&#10;  A 0.38 0.38 0.0 0 0 83.59 45.05&#10;  L 76.95 45.05&#10;  A 0.38 0.38 0.0 0 0 76.57 45.43&#10;  L 76.57 54.35&#10;  A 0.38 0.38 0.0 0 0 76.95 54.73&#10;  L 83.59 54.73&#10;  A 0.38 0.38 0.0 0 0 83.97 54.35&#10;  L 83.97 45.43&#10;  Z&#10;  M 70.92 60.43&#10;  A 0.43 0.43 0.0 0 0 70.49 60.00&#10;  L 64.05 60.00&#10;  A 0.43 0.43 0.0 0 0 63.62 60.43&#10;  L 63.62 73.41&#10;  A 0.43 0.43 0.0 0 0 64.05 73.84&#10;  L 70.49 73.84&#10;  A 0.43 0.43 0.0 0 0 70.92 73.41&#10;  L 70.92 60.43&#10;  Z&#10;  M 83.9487 60.4236&#10;  A 0.43 0.43 0.0 0 0 83.5179 59.9943&#10;  L 76.9979 60.0057&#10;  A 0.43 0.43 0.0 0 0 76.5687 60.4365&#10;  L 76.5913 73.4164&#10;  A 0.43 0.43 0.0 0 0 77.0221 73.8457&#10;  L 83.5421 73.8343&#10;  A 0.43 0.43 0.0 0 0 83.9713 73.4035&#10;  L 83.9487 60.4236&#10;  Z"/>
<rect fill="#ffffff" x="-3.65" y="-4.84" transform="translate(67.27,49.89) rotate(-0.1)" width="7.30" height="9.68" rx="0.37"/>
<rect fill="#ffffff" x="76.57" y="45.05" width="7.40" height="9.68" rx="0.38"/>
<rect fill="#ffffff" x="63.62" y="60.00" width="7.30" height="13.84" rx="0.43"/>
<rect fill="#ffffff" x="-3.69" y="-6.92" transform="translate(80.27,66.92) rotate(-0.1)" width="7.38" height="13.84" rx="0.43"/>
</svg>